<svg id="Layer_1" data-name="Layer 1" xmlns="http://www.w3.org/2000/svg" viewBox="0 0 420 64"><defs><style>.cls-1{fill:none;}.cls-2{fill:#c44717;}.cls-3{fill:#ce6d4e;}.cls-4{fill:#db927b;}.cls-5{fill:#e6b5a7;}.cls-6{fill:#fff;}.cls-7{isolation:isolate;}</style></defs><title>inside_caus_web_logo</title><rect class="cls-1" width="420" height="64"/><rect class="cls-2" x="228" width="46.7" height="64"/><rect class="cls-3" x="276.4" width="46.7" height="64"/><rect class="cls-4" x="324.8" width="46.7" height="64"/><rect class="cls-5" x="373.3" width="46.7" height="64"/><path class="cls-6" d="M266.3,44.1c.6-.6,1-.5,1.5.1l2.1,2.3c.5.7.6,1,0,1.6-3.8,3.8-9.9,6.1-15.8,6.1a21.9,21.9,0,0,1,0-43.8,23.1,23.1,0,0,1,15.8,6.2c.5.5.5.9-.1,1.5l-2.1,2.3c-.5.6-1,.7-1.6.1A16.6,16.6,0,0,0,254,15.4c-9.1,0-16,8.3-16,17s6.9,17,16,17A17.2,17.2,0,0,0,266.3,44.1Z" transform="translate(0 -0.2)"/><path class="cls-6" d="M320.9,52.4c.3.5,0,1-.7,1H316c-.7,0-1-.2-1.4-1l-4.5-9.6H289.8l-4.4,9.6c-.4.8-.7,1-1.4,1h-4.2a.7.7,0,0,1-.7-1l20-41.3c.3-.6.5-1,.8-1h.2c.4,0,.5.4.8,1ZM300,19.8l-8.3,18.1h16.6L300,19.8Z" transform="translate(0 -0.2)"/><path class="cls-6" d="M331.1,36V12.2c0-.8.3-1.1,1.1-1.1h3.5c.8,0,1,.2,1,1.1V35.7c0,9.5,4.7,13.5,11.7,13.5s11.7-4,11.7-13.5V12.2c0-.8.2-1.1,1.1-1.1h3.5c.8,0,1,.2,1,1.1V36c0,12-7.4,18.2-17.3,18.2S331.1,48.1,331.1,36Z" transform="translate(0 -0.2)"/><path class="cls-6" d="M384.9,23.2c0,4.7,5.2,5.8,11.7,6.6,7.6,1,14.4,3.3,14.4,11.7,0,6.5-5.1,12.6-15.5,12.6-6.5,0-11.8-1.5-16.3-4.6-.7-.5-.7-.8-.3-1.5l1.4-2.3c.4-.7.7-.9,1.5-.4a24.13,24.13,0,0,0,13.1,3.9c5.5,0,10.6-1.7,10.6-7.4,0-4.8-4.4-6.3-11.9-7.3-6.6-.9-14.2-3-14.2-11.1,0-4.8,3.6-12.9,15.4-12.9,6.2,0,10.3,1.8,14.9,4.6.7.4.6.8.3,1.5l-1.4,2.2c-.4.7-.7,1-1.5.5a20.49,20.49,0,0,0-11.7-3.9C386.8,15.4,384.9,20.1,384.9,23.2Z" transform="translate(0 -0.2)"/><g class="cls-7"><path class="cls-6" d="M20.65,13.82a14.94,14.94,0,0,1-1.26,4.08c-.43,1.07-.76,2-1,2.66A8.8,8.8,0,0,0,18,22.1c-.43,2.56-.85,5.32-1.24,8.28s-.79,6.14-1.15,9.57q-.2,1.38-.33,2.4c-.08.68-.16,1.24-.22,1.67s-.1.9-.16,1.4-.12,1.07-.17,1.67-.07,1.15-.08,1.65,0,1,0,1.39a2.77,2.77,0,0,0,.42,1.16,3.09,3.09,0,0,1,.42,1.23c0,.78-.48,1.53-1.58,2.26a7.45,7.45,0,0,1-1.51.83,5,5,0,0,1-1.31.34A2.25,2.25,0,0,1,9.6,55.5a5.58,5.58,0,0,1-1-1.62,4.89,4.89,0,0,1-.45-1.65c-.07-1.36-.08-2.72,0-4.07s.14-2.74.31-4.14.38-2.94.63-4.69.55-3.68.92-5.82c.28-1.46.54-2.85.79-4.15s.49-2.54.73-3.7l.81-4c.3-1.47.63-3.13,1-5,.11-.65.2-1.2.29-1.65s.16-.81.23-1.07.11-.7.21-1.19.22-1.12.37-1.88a3,3,0,0,1,.24-.89,5.17,5.17,0,0,1,.52-.95,4,4,0,0,1,.68-.79,1.09,1.09,0,0,1,.72-.34A3.21,3.21,0,0,1,18,8.25a3.37,3.37,0,0,1,1.28.89,4.59,4.59,0,0,1,1,1.37A4.73,4.73,0,0,1,20.59,12c0,.35,0,.65,0,.91S20.63,13.5,20.65,13.82Z" transform="translate(0 -0.2)"/><path class="cls-6" d="M84.73,32.48a3.89,3.89,0,0,1-.21,1.24A9.58,9.58,0,0,1,84,35a10.69,10.69,0,0,1-.69,1.23l-.75,1.15a28.42,28.42,0,0,1-2.19,3c-.85,1-1.75,2-2.7,2.92s-2,1.85-3,2.69-2,1.58-3,2.23l-2.21,1.45a17.8,17.8,0,0,1-2.12,1.17,12.76,12.76,0,0,1-2.23.77,10.76,10.76,0,0,1-2.55.29,6.72,6.72,0,0,1-4.37-1.36,6.15,6.15,0,0,1-1.47-1.76,13.73,13.73,0,0,1-1.1-2.41,26.57,26.57,0,0,1-.81-2.81c-.22-1-.41-2-.56-2.94-.2-1.21-.38-2.29-.55-3.25a15.51,15.51,0,0,0-.6-2.42,4.39,4.39,0,0,0-.82-1.52,1.64,1.64,0,0,0-1.27-.54,5.5,5.5,0,0,0-1.16.13,3.74,3.74,0,0,0-1.15.52,8.29,8.29,0,0,0-1.31,1.1c-.47.47-1,1.1-1.66,1.87s-1.36,1.73-2.18,2.85-1.78,2.46-2.88,4c-.54.75-1.18,1.58-1.91,2.49s-1.48,1.76-2.24,2.58a29.86,29.86,0,0,1-2.25,2.17,5.82,5.82,0,0,1-1.94,1.19q-2.85-.6-2.85-7.08a51.66,51.66,0,0,1,.39-5.2c.13-1.06.28-2.16.45-3.31s.39-2.31.65-3.46.56-2.28.89-3.36a20.77,20.77,0,0,1,1.18-3,4,4,0,0,1,.68-1,2.75,2.75,0,0,1,.73-.55,2.53,2.53,0,0,1,.77-.22,7.55,7.55,0,0,1,.83-.05c.34,0,.65.24.92.71a4,4,0,0,1,.4,2,7.55,7.55,0,0,1-.13,1.46A11.31,11.31,0,0,1,37,30c-.15.47-.32,1-.49,1.53s-.34,1.18-.52,1.89-.27,1.23-.43,1.94-.31,1.44-.45,2.17S34.8,39,34.7,39.67a13.49,13.49,0,0,0-.15,1.89,4,4,0,0,0,.2,1.2c.6-.07,1.59-1,3-2.72l2.35-2.91c.85-1.05,1.77-2.22,2.76-3.49.73-1,1.46-1.83,2.18-2.65a16.73,16.73,0,0,1,2.25-2.15,10.18,10.18,0,0,1,2.47-1.45,7.56,7.56,0,0,1,2.9-.54,5,5,0,0,1,2.79.73,5.3,5.3,0,0,1,1.8,2,11.79,11.79,0,0,1,1.05,3.06,38.52,38.52,0,0,1,.6,3.91c.13,1.21.25,2.4.37,3.59a13.09,13.09,0,0,0,.69,3.18,5.6,5.6,0,0,0,1.49,2.28,4,4,0,0,0,2.78.88,7.43,7.43,0,0,0,2.91-.65A19.12,19.12,0,0,0,70.31,44a41.32,41.32,0,0,0,3.48-2.7c1.19-1,2.43-2.17,3.7-3.4a20.59,20.59,0,0,0,1.63-1.79c.59-.73,1.17-1.42,1.75-2.09a21.31,21.31,0,0,1,1.6-1.71,2,2,0,0,1,1.19-.71,1.77,1.77,0,0,1,.63.19A.67.67,0,0,1,84.73,32.48Z" transform="translate(0 -0.2)"/><path class="cls-6" d="M112.86,32.22a2.86,2.86,0,0,1-.29,1.15,9.37,9.37,0,0,1-.78,1.31,16.1,16.1,0,0,1-1.1,1.37l-1.23,1.37c-.32.37-.67.74-1,1.12s-.78.8-1.25,1.26l-1.63,1.62-2.2,2.15c-.75.73-1.59,1.5-2.5,2.31s-1.85,1.6-2.78,2.37-1.85,1.52-2.74,2.23L93,52.36q-2.33,1.91-4.43,3.6c-1.4,1.14-2.78,2.15-4.14,3.06-2.69,1.81-4.83,2.72-6.4,2.72a5.51,5.51,0,0,1-1.88-.42c-.73-.28-1.09-.67-1.09-1.17a3.9,3.9,0,0,1,1.58-3.3,23.44,23.44,0,0,1,4.85-2.45,21.42,21.42,0,0,0,4.85-2.53A4,4,0,0,0,88,48.51q0-1.07-2.24-4.33c-.73-1.1-1.38-2.11-2-3s-1.06-1.74-1.47-2.48a9.78,9.78,0,0,1-1.23-4.75,14.27,14.27,0,0,1,.81-4.56,11,11,0,0,1,1.24-2.73A16.86,16.86,0,0,1,85,24.18a10.55,10.55,0,0,1,2-1.73,3.29,3.29,0,0,1,1.81-.61q2.84,0,2.84,3.36a4.1,4.1,0,0,1-.93,2.52,13,13,0,0,1-1.1,1.22c-.44.42-.93.87-1.49,1.34s-1,.85-1.38,1.19-.68.64-.92.88a9.76,9.76,0,0,0,1,3.94c.36.74.78,1.53,1.26,2.39s1,1.79,1.65,2.78,1.15,1.89,1.58,2.67.76,1.36,1,1.73c0,.09.14.13.36.13a4,4,0,0,0,1.57-.66c.74-.44,1.62-1,2.65-1.78s2.13-1.61,3.34-2.59,2.42-2,3.62-3.12,2.29-2.1,3.11-2.94,1.59-1.63,2.32-2.36,1.28-1.3,1.64-1.7.55-.59.6-.59a.72.72,0,0,1,.48.19,1.83,1.83,0,0,1,.4.5,3.11,3.11,0,0,1,.28.65A2.42,2.42,0,0,1,112.86,32.22Z" transform="translate(0 -0.2)"/><path class="cls-6" d="M142.08,34.55a3.89,3.89,0,0,1-.6,1.84A23.81,23.81,0,0,1,139.77,39c-.72,1-1.56,2-2.52,3.16s-2,2.24-3,3.36c-1.21,1.29-2.49,2.54-3.83,3.73s-2.79,2.36-4.32,3.48q-4.53,3.36-8.08,3.36a7.43,7.43,0,0,1-6.08-2.62,14.47,14.47,0,0,1-2.94-6.4,37.21,37.21,0,0,1-.78-7.66c0-1.1.13-2.81.39-5.14.13-1.17.26-2.17.39-3a17,17,0,0,1,.42-2,5.26,5.26,0,0,1,1.9-2.65,5,5,0,0,1,3.11-1.19q.87,0,.87,1.65a16.92,16.92,0,0,1-.21,2.49c-.14.92-.28,1.84-.44,2.74-.28,1.71-.48,3.23-.61,4.58s-.19,2.51-.19,3.51a25.2,25.2,0,0,0,.9,6.59c.6,2.26,1.69,3.4,3.27,3.4a12,12,0,0,0,5.56-1.75c1-.6,2.11-1.27,3.17-2s2.11-1.56,3.16-2.46S132,42.33,133,41.42s2-1.86,2.91-2.83,1.8-1.88,2.55-2.72,1.41-1.61,2-2.33l.12-.21.17-.29a2.54,2.54,0,0,1,.2-.24.17.17,0,0,1,.19-.06c.3,0,.53.23.68.71A2.85,2.85,0,0,1,142.08,34.55ZM120.91,8.26a5.89,5.89,0,0,1-1.1,3.59,3.62,3.62,0,0,1-3.14,1.49,12.2,12.2,0,0,1-2.88-.39c-1-.26-1.55-.68-1.55-1.26a5.23,5.23,0,0,1,1-3,8.68,8.68,0,0,1,2.37-2.35,4,4,0,0,1,1.46-.64,6.37,6.37,0,0,1,2.84.5A2.09,2.09,0,0,1,120.91,8.26Z" transform="translate(0 -0.2)"/><path class="cls-6" d="M188.89,33.29a3.5,3.5,0,0,1-.38,1.58,25.63,25.63,0,0,1-3.27,4.36c-.82,1-1.69,1.93-2.62,2.87S180.71,44,179.68,45s-2,1.84-3,2.62-1.91,1.47-2.84,2.1a8.69,8.69,0,0,1-4.4,1.87,4.27,4.27,0,0,1-1.65-.45,6.87,6.87,0,0,1-3.23-3.43,21.43,21.43,0,0,1-1.65-5.2q-.48-2.72-.81-6.08a49.7,49.7,0,0,1-10.47,13.38q-6.47,5.9-13.39,5.89a3.13,3.13,0,0,1-2.9-2,9.22,9.22,0,0,1-1-4.17,14.12,14.12,0,0,1,.49-4.33,59.78,59.78,0,0,1,3.12-7.76,47.57,47.57,0,0,1,4.28-7.11A49.9,49.9,0,0,1,146,25.72a15.44,15.44,0,0,1,4-3.23,14.31,14.31,0,0,1,6.69-1.26,3.06,3.06,0,0,1,2.59,1.68,13.17,13.17,0,0,1,1.62,3.91,17.8,17.8,0,0,1,.55,3.69c.32-1.06.61-2.13.87-3.22s.48-2.22.68-3.38.37-2.39.53-3.67.31-2.66.44-4.12c0-.39.08-.88.13-1.49s.09-1.31.16-2.13c.13-1.68.26-3.1.39-4.25A6.46,6.46,0,0,1,165.13,6a2.9,2.9,0,0,1,2.72-1.33,4.64,4.64,0,0,1,1.91.42c.66.26,1,.63,1,1.1a8.41,8.41,0,0,1-.15,1.26c-.09.59-.23,1.34-.4,2.27s-.41,2.07-.7,3.44-.61,3-.95,4.9c0,.21-.09.64-.19,1.29s-.23,1.33-.36,2l-.36,2c-.1.61-.17,1-.19,1.15-.28,1.74-.51,3.38-.68,4.91a42.12,42.12,0,0,0-.26,4.66c0,1.25,0,2.72.1,4.43a42.51,42.51,0,0,0,.49,5c.25,1.61.63,2.42,1.13,2.42,1.76,0,3.9-.81,6.4-2.42a57.7,57.7,0,0,0,7.17-5.63q3.47-3.16,6.15-6a.56.56,0,0,1,.35-.2c.24,0,.4.18.47.53A4.83,4.83,0,0,1,188.89,33.29Zm-30.13,2a2,2,0,0,1-1.27-.84,2.53,2.53,0,0,1-.44-1.45,15.18,15.18,0,0,1,.19-1.91,13.87,13.87,0,0,0,.2-1.94,3.34,3.34,0,0,0-.31-1.31,6.18,6.18,0,0,0-.79-1.36,5.41,5.41,0,0,0-1.08-1.06,2,2,0,0,0-1.18-.44q-1.72,0-4.66,3.59-1.48,1.84-2.73,3.52t-2.28,3.33c-.75,1.19-1.4,2.28-1.92,3.27s-1,1.87-1.35,2.65a16.73,16.73,0,0,0-1.9,6.46c0,2,.68,3,2,3s2.87-.7,5-2.1a36,36,0,0,0,5.05-4c1.22-1.29,2.25-2.38,3.07-3.27s1.46-1.59,1.94-2.13a12.54,12.54,0,0,0,1.31-1.81A21.47,21.47,0,0,0,158.76,35.32Z" transform="translate(0 -0.2)"/><path class="cls-6" d="M224.26,33.29a4.29,4.29,0,0,1-.71,1.71,58.85,58.85,0,0,1-3.76,4.85,58.28,58.28,0,0,1-4.43,4.6,57.12,57.12,0,0,1-4.89,4.08,38.82,38.82,0,0,1-5.12,3.26,26.14,26.14,0,0,1-5.16,2.12,16.85,16.85,0,0,1-5,.71c-3.45,0-6.12-1-8-3s-2.86-5-2.86-9.09a31.63,31.63,0,0,1,1.56-9.86,27.4,27.4,0,0,1,5.35-9.21A13.59,13.59,0,0,1,192.86,22a13.91,13.91,0,0,1,1.87-1.26,10.1,10.1,0,0,1,2-.87,8.62,8.62,0,0,1,2.11-.39,5.88,5.88,0,0,1,.72.06,7.06,7.06,0,0,1,1,.23,7.19,7.19,0,0,1,1,.4,2.37,2.37,0,0,1,.77.6,9.14,9.14,0,0,1,1.44,2.14,6,6,0,0,1,.6,2.42,9.37,9.37,0,0,1-.34,2.93,11.15,11.15,0,0,1-1.36,2.94,19.75,19.75,0,0,1-2.5,3.1,49.64,49.64,0,0,1-3.75,3.44l-3.09,2.58a43.58,43.58,0,0,1-4.09,3A6,6,0,0,0,191.14,48a7.67,7.67,0,0,0,5.19,1.63,15,15,0,0,0,3.72-.48,23.6,23.6,0,0,0,3.68-1.28,30.62,30.62,0,0,0,3.51-1.81c1.13-.68,2.19-1.37,3.19-2.08q2.74-2,5-4c1.48-1.32,3-2.72,4.42-4.18l1.75-1.75a4.6,4.6,0,0,1,2.3-1.39C224.13,32.67,224.26,32.88,224.26,33.29Zm-24.7-6.44a6,6,0,0,0-.14-1,3,3,0,0,0-.34-.83,2,2,0,0,0-.52-.56,1.12,1.12,0,0,0-.68-.21,5.09,5.09,0,0,0-3.42,2.08,22.82,22.82,0,0,0-3.24,5.26,11.61,11.61,0,0,0-.63,1.6c-.18.59-.35,1.19-.51,1.81s-.31,1.22-.42,1.82-.23,1.15-.31,1.62l3.1-2.33A32.56,32.56,0,0,0,195.1,34q.78-.7,1.59-1.53a17,17,0,0,0,1.47-1.73,8.55,8.55,0,0,0,1.05-1.88A4.8,4.8,0,0,0,199.56,26.85Z" transform="translate(0 -0.2)"/></g><rect class="cls-6" x="274.7" width="1.7" height="64"/><rect class="cls-6" x="323.1" width="1.7" height="64"/><rect class="cls-6" x="371.55" width="1.7" height="64"/><rect class="cls-6" x="226.3" width="1.7" height="64"/></svg>